<mxfile host="Electron" modified="2024-12-13T14:38:17.718Z" agent="Mozilla/5.0 (Windows NT 10.0; Win64; x64) AppleWebKit/537.36 (KHTML, like Gecko) draw.io/24.5.1 Chrome/124.0.6367.207 Electron/30.0.6 Safari/537.36" etag="h6Ph7L-8_xo-fWhno8Cq" version="24.5.1" type="device">
  <diagram name="Page-1" id="mGG0X8TaIVItctZBCfHG">
    <mxGraphModel dx="1375" dy="974" grid="1" gridSize="10" guides="1" tooltips="1" connect="1" arrows="1" fold="1" page="1" pageScale="1" pageWidth="850" pageHeight="1100" math="0" shadow="0">
      <root>
        <mxCell id="0" />
        <mxCell id="1" parent="0" />
        <mxCell id="sGLZuwgg0aDiZQGmcr5o-27" value="SendMessage()" style="html=1;align=left;spacingLeft=2;endArrow=block;rounded=0;edgeStyle=orthogonalEdgeStyle;curved=0;rounded=0;" edge="1" parent="1">
          <mxGeometry relative="1" as="geometry">
            <mxPoint x="425" y="350" as="sourcePoint" />
            <Array as="points">
              <mxPoint x="455" y="380" />
            </Array>
            <mxPoint x="430.5" y="380" as="targetPoint" />
          </mxGeometry>
        </mxCell>
        <mxCell id="sGLZuwgg0aDiZQGmcr5o-2" value="Infotainment:IBrake" style="shape=umlLifeline;perimeter=lifelinePerimeter;whiteSpace=wrap;html=1;container=1;dropTarget=0;collapsible=0;recursiveResize=0;outlineConnect=0;portConstraint=eastwest;newEdgeStyle={&quot;edgeStyle&quot;:&quot;elbowEdgeStyle&quot;,&quot;elbow&quot;:&quot;vertical&quot;,&quot;curved&quot;:0,&quot;rounded&quot;:0};" vertex="1" parent="1">
          <mxGeometry x="180" y="150" width="145" height="410" as="geometry" />
        </mxCell>
        <mxCell id="sGLZuwgg0aDiZQGmcr5o-7" value="" style="html=1;points=[[0,0,0,0,5],[0,1,0,0,-5],[1,0,0,0,5],[1,1,0,0,-5]];perimeter=orthogonalPerimeter;outlineConnect=0;targetShapes=umlLifeline;portConstraint=eastwest;newEdgeStyle={&quot;curved&quot;:0,&quot;rounded&quot;:0};" vertex="1" parent="sGLZuwgg0aDiZQGmcr5o-2">
          <mxGeometry x="67.5" y="70" width="10" height="330" as="geometry" />
        </mxCell>
        <mxCell id="sGLZuwgg0aDiZQGmcr5o-8" value="GetBrakeState()" style="html=1;verticalAlign=bottom;endArrow=block;curved=0;rounded=0;" edge="1" parent="1" target="sGLZuwgg0aDiZQGmcr5o-7">
          <mxGeometry width="80" relative="1" as="geometry">
            <mxPoint x="140" y="220" as="sourcePoint" />
            <mxPoint x="240" y="220" as="targetPoint" />
          </mxGeometry>
        </mxCell>
        <mxCell id="sGLZuwgg0aDiZQGmcr5o-16" value="Infotainment:ICANBus" style="shape=umlLifeline;perimeter=lifelinePerimeter;whiteSpace=wrap;html=1;container=1;dropTarget=0;collapsible=0;recursiveResize=0;outlineConnect=0;portConstraint=eastwest;newEdgeStyle={&quot;edgeStyle&quot;:&quot;elbowEdgeStyle&quot;,&quot;elbow&quot;:&quot;vertical&quot;,&quot;curved&quot;:0,&quot;rounded&quot;:0};" vertex="1" parent="1">
          <mxGeometry x="353" y="150" width="145" height="410" as="geometry" />
        </mxCell>
        <mxCell id="sGLZuwgg0aDiZQGmcr5o-25" value="" style="html=1;points=[[0,0,0,0,5],[0,1,0,0,-5],[1,0,0,0,5],[1,1,0,0,-5]];perimeter=orthogonalPerimeter;outlineConnect=0;targetShapes=umlLifeline;portConstraint=eastwest;newEdgeStyle={&quot;curved&quot;:0,&quot;rounded&quot;:0};" vertex="1" parent="sGLZuwgg0aDiZQGmcr5o-16">
          <mxGeometry x="67.5" y="170" width="10" height="40" as="geometry" />
        </mxCell>
        <mxCell id="sGLZuwgg0aDiZQGmcr5o-26" value="ParseMessage()" style="html=1;align=left;spacingLeft=2;endArrow=block;rounded=0;edgeStyle=orthogonalEdgeStyle;curved=0;rounded=0;" edge="1" target="sGLZuwgg0aDiZQGmcr5o-25" parent="sGLZuwgg0aDiZQGmcr5o-16">
          <mxGeometry relative="1" as="geometry">
            <mxPoint x="72.5" y="150" as="sourcePoint" />
            <Array as="points">
              <mxPoint x="102.5" y="180" />
            </Array>
          </mxGeometry>
        </mxCell>
        <mxCell id="sGLZuwgg0aDiZQGmcr5o-23" value="" style="html=1;points=[[0,0,0,0,5],[0,1,0,0,-5],[1,0,0,0,5],[1,1,0,0,-5]];perimeter=orthogonalPerimeter;outlineConnect=0;targetShapes=umlLifeline;portConstraint=eastwest;newEdgeStyle={&quot;curved&quot;:0,&quot;rounded&quot;:0};" vertex="1" parent="sGLZuwgg0aDiZQGmcr5o-16">
          <mxGeometry x="67.5" y="140" width="10" height="120" as="geometry" />
        </mxCell>
        <mxCell id="sGLZuwgg0aDiZQGmcr5o-18" value="Infotainment:IDisplay" style="shape=umlLifeline;perimeter=lifelinePerimeter;whiteSpace=wrap;html=1;container=1;dropTarget=0;collapsible=0;recursiveResize=0;outlineConnect=0;portConstraint=eastwest;newEdgeStyle={&quot;edgeStyle&quot;:&quot;elbowEdgeStyle&quot;,&quot;elbow&quot;:&quot;vertical&quot;,&quot;curved&quot;:0,&quot;rounded&quot;:0};" vertex="1" parent="1">
          <mxGeometry x="530" y="150" width="145" height="410" as="geometry" />
        </mxCell>
        <mxCell id="sGLZuwgg0aDiZQGmcr5o-29" value="" style="html=1;points=[[0,0,0,0,5],[0,1,0,0,-5],[1,0,0,0,5],[1,1,0,0,-5]];perimeter=orthogonalPerimeter;outlineConnect=0;targetShapes=umlLifeline;portConstraint=eastwest;newEdgeStyle={&quot;curved&quot;:0,&quot;rounded&quot;:0};" vertex="1" parent="sGLZuwgg0aDiZQGmcr5o-18">
          <mxGeometry x="67.5" y="290" width="10" height="50" as="geometry" />
        </mxCell>
        <mxCell id="sGLZuwgg0aDiZQGmcr5o-24" value="Send()" style="html=1;verticalAlign=bottom;endArrow=block;curved=0;rounded=0;" edge="1" parent="1">
          <mxGeometry width="80" relative="1" as="geometry">
            <mxPoint x="257.5" y="290" as="sourcePoint" />
            <mxPoint x="420" y="290" as="targetPoint" />
          </mxGeometry>
        </mxCell>
        <mxCell id="sGLZuwgg0aDiZQGmcr5o-28" value="Show()" style="html=1;verticalAlign=bottom;endArrow=block;curved=0;rounded=0;" edge="1" parent="1">
          <mxGeometry width="80" relative="1" as="geometry">
            <mxPoint x="255.5" y="440" as="sourcePoint" />
            <mxPoint x="595.5" y="440" as="targetPoint" />
          </mxGeometry>
        </mxCell>
        <mxCell id="sGLZuwgg0aDiZQGmcr5o-30" value="Alt" style="shape=umlFrame;whiteSpace=wrap;html=1;pointerEvents=0;" vertex="1" parent="1">
          <mxGeometry x="160" y="260" width="540" height="270" as="geometry" />
        </mxCell>
        <mxCell id="sGLZuwgg0aDiZQGmcr5o-31" value="[True]" style="text;html=1;align=center;verticalAlign=middle;resizable=0;points=[];autosize=1;strokeColor=none;fillColor=none;" vertex="1" parent="1">
          <mxGeometry x="160" y="290" width="50" height="30" as="geometry" />
        </mxCell>
      </root>
    </mxGraphModel>
  </diagram>
</mxfile>
